PathFileType	4	(X/Y/Z)	C:\Users\Basilio\Documents\Thesis Gigler\squatting_fais\c3dfiles\047\SJ_pre2\markers_experimental.trc
DataRate	CameraRate	NumFrames	NumMarkers	Units	OrigDataRate	OrigDataStartFrame	OrigNumFrames
200.000000	200.000000	4	60	mm	200.000000	1022	1636
Frame#	Time	FHD			LBHD			RBHD			C7			T10			CLAV			LSHO			LUUPA			LMUPA			LDUPA			LLEP			LMEP			LRAD			LUL			LRFIN			RSHO			RUPA1			RMUPA			RDUPA			RLEP			RMEP			RRAD			RUL			RUFIN			RASI			USACR			LSACR			RSACR			LTHI1			LTHI2			LTHI3			LTHI4			LLFC			LMFC			LTIB1			LTIB2			LTIB3			LTIB4			LLMAL			LMMAL			LMT1			LMT2			LMT5			RTHI			RTHI2			RTHI3			RTHI4			RLFC			RMFC			RTIB1			RTIB2			RTIB3			RTIB4			RLMAL			RMMAL			RHEE			RMT1			RMT2			RMT5			LASI			
		X1	Y1	Z1	X2	Y2	Z2	X3	Y3	Z3	X4	Y4	Z4	X5	Y5	Z5	X6	Y6	Z6	X7	Y7	Z7	X8	Y8	Z8	X9	Y9	Z9	X10	Y10	Z10	X11	Y11	Z11	X12	Y12	Z12	X13	Y13	Z13	X14	Y14	Z14	X15	Y15	Z15	X16	Y16	Z16	X17	Y17	Z17	X18	Y18	Z18	X19	Y19	Z19	X20	Y20	Z20	X21	Y21	Z21	X22	Y22	Z22	X23	Y23	Z23	X24	Y24	Z24	X25	Y25	Z25	X26	Y26	Z26	X27	Y27	Z27	X28	Y28	Z28	X29	Y29	Z29	X30	Y30	Z30	X31	Y31	Z31	X32	Y32	Z32	X33	Y33	Z33	X34	Y34	Z34	X35	Y35	Z35	X36	Y36	Z36	X37	Y37	Z37	X38	Y38	Z38	X39	Y39	Z39	X40	Y40	Z40	X41	Y41	Z41	X42	Y42	Z42	X43	Y43	Z43	X44	Y44	Z44	X45	Y45	Z45	X46	Y46	Z46	X47	Y47	Z47	X48	Y48	Z48	X49	Y49	Z49	X50	Y50	Z50	X51	Y51	Z51	X52	Y52	Z52	X53	Y53	Z53	X54	Y54	Z54	X55	Y55	Z55	X56	Y56	Z56	X57	Y57	Z57	X58	Y58	Z58	X59	Y59	Z59	X60	Y60	Z60	

1023	5.11	1.206295371055603	2054.894775390625	-875.899597167969	-163.8685150146485	2024.089721679688	-953.8322753906252	-184.7685089111328	2027.307739257813	-808.5207519531252	-235.9306335449219	1881.670043945313	-878.5205078125002	-268.0217895507813	1549.443481445313	-880.5723876953127	-70.97608947753908	1836.614501953125	-876.9047851562502	-141.0169830322266	1897.449340820313	-1023.706176757813	-257.3568115234376	1790.947021484375	-1158.090698242188	-220.7610931396485	1769.06787109375	-1186.2666015625	-272.0312805175782	1740.52001953125	-1203.946655273438	-266.0523376464844	1678.892211914063	-1247.05517578125	-315.8033447265626	1643.173950195313	-1168.348266601563	-160.6230621337891	1503.862426757813	-1087.77099609375	-123.4379272460938	1476.472534179688	-1152.054321289063	-108.6912002563477	1472.436889648438	-1048.454223632813	-151.9318389892578	1884.612548828125	-726.0680541992189	-293.4899291992188	1778.83642578125	-607.5494384765626	-266.0607604980469	1752.90185546875	-575.6026000976564	-319.5548706054688	1726.84765625	-567.6153564453126	-323.2761535644532	1662.369506835938	-529.8597412109376	-363.3162841796876	1627.685668945313	-608.1991577148439	-146.0080718994141	1539.935791015625	-663.5073852539064	-139.8067016601563	1502.12060546875	-597.1232910156251	-106.4295730590821	1474.123046875	-697.1590576171876	-112.4055633544922	1314.92333984375	-767.4106445312501	-271.5884094238282	1423.448486328125	-893.7781982421877	-274.4204406738282	1392.474731445313	-924.2340087890627	-278.4971923828126	1390.2060546875	-866.4758300781252	-230.4903717041016	1181.949584960938	-1082.345336914063	-215.1778869628907	1099.262573242188	-1089.285766601563	-169.1294403076172	1091.077514648438	-1083.32666015625	-255.7139892578126	1053.203002929688	-1080.965698242188	-313.5643310546876	884.170837402344	-1045.858276367188	-260.8193969726563	858.695251464844	-938.424987792969	-297.6416625976563	686.4203491210939	-977.2327880859377	-329.5401611328126	651.2191162109376	-1051.963623046875	-303.4494934082032	642.3643188476564	-1015.119018554688	-323.3559265136719	563.8856811523439	-991.768493652344	-401.8806152343751	478.5632324218751	-1028.720703125	-355.5745239257813	487.3198242187501	-952.8057861328127	-319.7076110839844	352.1296386718751	-939.4891357421877	-333.0048828125001	335.2226562500001	-980.3127441406252	-385.948455810547	340.0531311035157	-1012.715026855469	-291.3454895019532	1159.663818359375	-719.1304931640626	-276.1394653320313	1095.745849609375	-706.1154174804689	-244.5267486572266	1088.692993164063	-698.9476928710939	-319.1573181152344	1027.638061523438	-729.9432373046876	-348.2070312500001	879.003601074219	-754.0393676757814	-272.9265441894532	858.961608886719	-847.5830688476565	-331.1434631347657	748.8474121093751	-748.5727539062501	-413.0736083984376	676.1934814453126	-749.0374755859376	-368.7894897460938	671.9628295898439	-734.8690795898439	-348.3374633789063	619.1372680664064	-755.3175659179689	-440.0710754394532	475.7446899414064	-764.8723754882814	-364.8104248046876	476.1677856445314	-821.548522949219	-462.128387451172	467.1109924316407	-842.916931152344	-304.1753540039063	357.9774780273438	-755.3811645507814	-324.2625427246094	361.2785949707032	-715.2103271484376	-399.5039978027345	357.8211059570313	-699.0588378906251	-95.28582000732423	1326.508911132813	-1001.087768554688	
1024	5.115	-0.4733738601207734	2061.5732421875	-876.7526855468752	-165.4420623779297	2030.74365234375	-954.5148925781252	-186.3219604492188	2033.894287109375	-809.0260009765627	-237.3081207275391	1888.065673828125	-879.1611938476565	-268.2206420898438	1556.301147460938	-879.9158935546877	-72.42127990722658	1843.429809570313	-877.401062011719	-141.4627532958985	1903.473388671875	-1024.639892578125	-257.7191162109376	1795.684326171875	-1159.057739257813	-220.9843750000001	1774.38525390625	-1187.17626953125	-271.2978210449219	1744.978271484375	-1205.096435546875	-264.4210510253907	1683.520751953125	-1248.088256835938	-314.3319396972657	1647.5126953125	-1169.479614257813	-158.0680694580078	1510.158203125	-1087.358032226563	-121.0208358764649	1482.39111328125	-1150.9052734375	-106.6207046508789	1480.08447265625	-1047.617065429688	-153.4287719726563	1891.08056640625	-726.4721069335939	-294.2021484375001	1783.951293945313	-607.4244384765626	-266.4322814941407	1758.368530273438	-575.5299072265626	-319.8524475097657	1731.750366210938	-567.5866088867189	-322.6922607421876	1667.10205078125	-529.4775390625001	-362.5578613281251	1632.24462890625	-608.0617675781251	-145.1894836425782	1544.558349609375	-664.0769653320314	-138.6485137939453	1506.96533203125	-597.7631225585939	-105.3780593872071	1479.539428710938	-698.1875000000001	-110.8361587524414	1321.544799804688	-767.6694335937501	-270.7550048828126	1430.06787109375	-893.0104980468752	-273.5125427246094	1398.91357421875	-923.1685180664065	-277.6295166015626	1396.880126953125	-865.2470703125002	-228.2213592529297	1188.5390625	-1083.061767578125	-213.2839965820313	1105.922241210938	-1089.18798828125	-167.0619201660157	1097.630004882813	-1082.878540039063	-253.4238281250001	1059.880615234375	-1082.048950195313	-312.5911560058594	891.6214599609377	-1046.94677734375	-261.5873107910157	867.1643676757815	-938.3482666015627	-298.7026062011719	693.6900024414064	-978.568786621094	-329.6996154785157	659.2265625000001	-1054.21435546875	-304.7535705566407	649.7895507812501	-1016.637329101563	-324.5885620117188	571.4466552734376	-993.7561645507815	-404.0655212402345	486.7564697265626	-1031.545532226563	-358.8258972167969	494.5865478515626	-954.8423461914065	-323.8812255859376	359.6313171386719	-941.4473266601565	-336.9459533691407	342.0889892578126	-982.5102539062502	-389.6295776367189	348.2180175781251	-1015.979309082031	-290.3704528808594	1166.211669921875	-718.9918212890626	-274.9434509277344	1102.619262695313	-704.6956787109376	-243.4541168212891	1095.525268554688	-697.5821533203126	-317.6748352050782	1034.057739257813	-729.0486450195314	-346.5590515136719	885.037536621094	-751.9696655273439	-271.4176330566407	865.0870361328127	-845.5081787109377	-329.4259338378907	754.7563476562501	-747.4680786132814	-412.0456848144532	682.9180908203126	-746.1298217773439	-367.4932556152344	677.9625244140626	-733.1763305664064	-348.4098815917969	625.2706298828126	-754.3819580078126	-441.5551147460939	483.2834777832032	-762.0304565429689	-367.4647827148438	482.8176574707032	-820.2981567382815	-465.581268310547	475.759490966797	-839.5677490234377	-307.5022277832032	363.3321533203126	-756.5433959960939	-325.7157287597657	366.6562194824219	-716.5419311523439	-400.8831787109376	363.9256896972657	-698.4957885742189	-95.02040863037111	1334.351684570313	-1001.128112792969	
1025	5.12	-1.869545578956604	2067.677734375	-877.3642578125002	-166.9908752441407	2037.10302734375	-955.3475341796877	-187.2679748535157	2040.466552734375	-810.0242919921877	-238.5889892578126	1894.180053710938	-879.975280761719	-266.0263061523438	1563.797973632813	-879.3659667968752	-73.92432403564455	1849.761840820313	-877.6723632812502	-140.9596862792969	1908.684448242188	-1025.4384765625	-257.6747436523438	1800.09130859375	-1160.05419921875	-220.6321868896485	1779.475708007813	-1187.9599609375	-270.4875183105469	1749.499633789063	-1206.19677734375	-262.8201293945313	1687.7861328125	-1249.039916992188	-312.5409851074219	1651.940063476563	-1170.571899414063	-156.1909790039063	1516.276611328125	-1086.798583984375	-118.1367645263672	1488.432373046875	-1150.245849609375	-104.7638397216797	1487.109741210938	-1046.407836914063	-155.1766204833985	1897.377685546875	-726.9899902343751	-294.3925170898438	1788.99072265625	-607.2993774414064	-266.5116882324219	1763.53759765625	-575.5214233398439	-319.4755859375001	1736.710693359375	-567.0318603515626	-321.5718383789063	1671.494018554688	-529.1045532226564	-361.0930786132813	1636.767944335938	-607.5493164062501	-144.3763275146485	1549.224731445313	-664.8773193359376	-137.4961395263672	1511.78466796875	-598.6378173828126	-105.0297927856446	1484.399536132813	-699.1679077148439	-109.8307342529297	1327.697509765625	-767.3244018554689	-270.1838989257813	1435.495727539063	-892.489196777344	-272.3314208984376	1404.785522460938	-922.3020629882815	-276.9238891601563	1402.447265625	-864.561218261719	-226.4845581054688	1194.947875976563	-1083.606811523438	-211.4697265625001	1112.406127929688	-1089.21435546875	-165.2100830078125	1104.195434570313	-1082.654541015625	-251.8977813720704	1066.46630859375	-1082.637329101563	-311.9862670898438	898.7678222656252	-1048.234497070313	-262.9244384765626	874.8867187500002	-938.3867797851565	-300.1843261718751	700.6799926757814	-980.7729492187502	-330.7958984375001	667.1524658203126	-1056.5302734375	-306.1672973632813	656.4371948242189	-1018.918701171875	-326.4685363769532	578.8221435546876	-996.4804687500002	-406.1061401367189	494.6677856445314	-1035.18359375	-361.6807250976563	501.7869567871095	-957.6353149414065	-325.8117675781251	367.2253112792969	-944.410339355469	-340.3971862792969	349.1994018554688	-985.778991699219	-392.7663574218751	355.9753417968751	-1020.237182617188	-289.2649841308594	1172.322631835938	-718.2447509765626	-273.5732421875001	1108.84033203125	-705.0972290039064	-242.1220703125001	1101.632568359375	-698.0061645507814	-316.4362487792969	1040.147216796875	-727.1725463867189	-344.4191894531251	890.7796020507815	-749.5328369140626	-271.3061523437501	870.4632568359377	-842.9140625000002	-328.1516418457032	760.1459350585939	-746.0433349609376	-411.0827026367189	688.9426879882814	-743.2874755859376	-366.4098205566407	683.7550048828126	-731.3819580078126	-348.2639770507813	630.9207153320314	-753.3206787109376	-442.6465454101564	490.1238403320314	-759.0227050781251	-369.8960266113282	489.5557556152345	-819.1217041015627	-468.532684326172	483.700653076172	-835.7867431640627	-309.2023315429688	369.1351928710938	-758.6545410156251	-326.8410339355469	372.1449279785157	-717.2830810546876	-401.2305603027345	369.7660827636719	-697.6207885742189	-93.41876220703126	1341.351440429688	-1000.897399902344	
1026	5.125	-2.738296985626221	2073.458740234375	-878.1550292968752	-168.0349731445313	2043.054443359375	-956.1154785156252	-188.3255462646485	2047.017578125	-811.0144653320315	-239.8949890136719	1899.752075195313	-880.8257446289065	-266.3630371093751	1570.823120117188	-879.088562011719	-74.92664337158205	1855.738891601563	-878.2897949218752	-142.9456024169922	1914.357055664063	-1026.117065429688	-257.0687255859376	1804.634155273438	-1161.340942382813	-219.8084106445313	1784.357543945313	-1189.1435546875	-269.3344116210938	1753.736450195313	-1207.56787109375	-260.5296936035157	1692.085327148438	-1250.20361328125	-310.9673767089844	1656.117919921875	-1171.855102539063	-154.4717407226563	1522.353393554688	-1086.03955078125	-115.7268829345703	1493.832763671875	-1148.993408203125	-103.1169738769532	1493.632080078125	-1044.912841796875	-156.9849853515625	1903.090454101563	-727.7309570312501	-294.6851806640626	1794.156982421875	-606.4342651367189	-266.0768127441407	1768.566528320313	-575.4768676757814	-318.6749877929688	1741.333740234375	-566.4411010742189	-320.1902770996094	1675.957641601563	-528.6861572265626	-360.4651184082032	1640.914306640625	-607.0469970703126	-144.1467437744141	1553.496459960938	-665.7434692382814	-136.18701171875	1516.603393554688	-599.6937255859376	-103.9767608642578	1489.421020507813	-700.5334472656251	-108.9222717285157	1333.843994140625	-766.2601928710939	-269.2077941894532	1440.349365234375	-892.2836914062502	-271.9224243164063	1409.626953125	-922.226013183594	-275.9442749023438	1407.130615234375	-864.4420166015627	-224.8474273681641	1201.334838867188	-1083.89501953125	-210.3398132324219	1118.975463867188	-1089.2470703125	-163.6951599121094	1110.4990234375	-1082.609985351563	-250.7314147949219	1073.074951171875	-1083.045654296875	-312.0606689453126	906.007507324219	-1049.562744140625	-263.7427368164063	882.169128417969	-939.0698242187502	-301.4252624511719	707.0358276367189	-983.131774902344	-332.1217956542969	674.3397216796876	-1059.390625	-307.2380065917969	663.6441040039064	-1021.741088867188	-328.7823486328126	585.6347656250001	-999.4667968750002	-408.0181579589845	502.2374267578126	-1039.425048828125	-364.0999755859376	508.6422424316407	-961.7019653320315	-331.8662109375001	372.7904357910157	-949.3498535156252	-343.3342895507813	355.7015075683594	-990.3240356445315	-395.5947875976564	363.2332458496094	-1025.260986328125	-288.2446899414063	1177.991455078125	-717.0462036132814	-272.4824523925782	1114.37158203125	-703.2793579101564	-240.9257812500001	1107.571411132813	-696.6251220703126	-315.2839965820313	1045.6015625	-725.1220703125001	-342.9329833984376	896.4299316406252	-747.3410034179689	-270.8155212402344	876.2495727539065	-841.2664794921877	-327.0673217773438	765.5904541015626	-744.7886352539064	-410.668670654297	695.0695190429689	-739.7287597656251	-365.2582397460938	689.5141601562501	-729.1945800781251	-348.0872192382813	636.7070922851564	-753.2233886718751	-443.6026000976564	496.6748046875001	-755.8112792968751	-371.6044921875001	496.3084411621095	-817.3060302734377	-470.9271850585939	491.081024169922	-831.915222167969	-310.5832519531251	375.1971130371094	-759.2894897460939	-327.0303344726563	377.6557617187501	-717.9101562500001	-401.1697387695314	375.5717773437501	-695.9718627929689	-91.46219635009767	1347.934814453125	-1000.562744140625	
